<svg width="20" height="20" viewBox="0 0 20 20" fill="none" xmlns="http://www.w3.org/2000/svg">
<path fill-rule="evenodd" clip-rule="evenodd" d="M19.8933 8.19969C19.8896 9.80002 19.2772 11.3992 18.0562 12.6202L12.5135 18.1629C10.064 20.6124 6.09256 20.6124 3.64304 18.1629L1.83714 16.357C-0.612379 13.9074 -0.61238 9.93599 1.83714 7.48647L7.37978 1.94383C8.59234 0.731273 10.1778 0.118955 11.767 0.106875L11.8739 0L11.9828 0.108924C13.5317 0.150121 15.0682 0.761756 16.2503 1.94383L18.0562 3.74974C19.2382 4.93181 19.8499 6.46831 19.8911 8.01716L19.9834 8.10953L19.8933 8.19969ZM3.81008 9.06172L10.9383 16.1899L10.7394 16.3888C9.26972 17.8585 6.88685 17.8585 5.41714 16.3888L3.61123 14.5829C2.14152 13.1131 2.14152 10.7303 3.61123 9.26057L3.81008 9.06172Z" fill="#5AB2FF"/>
</svg>
