<svg width="18" height="20" viewBox="0 0 18 20" fill="none" xmlns="http://www.w3.org/2000/svg">
<path d="M0 12.3077C0 9.75869 2.26152 7.69231 5.05124 7.69231H8.41874C11.2085 7.69231 13.47 9.75869 13.47 12.3077V15.3846C13.47 17.9336 11.2085 20 8.41874 20H5.05124C2.26152 20 0 17.9336 0 15.3846V12.3077Z" fill="white"/>
<path d="M8.00898 19.0977C7.30538 18.4548 7.30538 17.4125 8.00898 16.7696L15.0291 10.3552C15.7088 9.73418 16.8107 9.73418 17.4903 10.3552C18.1379 10.9469 18.1727 11.8959 17.5701 12.526L12.937 17.3696C12.7316 17.5843 12.5025 17.779 12.2532 17.9505L10.3669 19.2486C9.6496 19.7422 8.64396 19.6779 8.00898 19.0977Z" fill="white"/>
<path d="M11.7862 15.3846C10.8563 15.3846 10.1025 14.6958 10.1025 13.8462V4.61538C10.1025 3.76572 10.8563 3.07692 11.7862 3.07692C12.7161 3.07692 13.47 3.76572 13.47 4.61538V13.8462C13.47 14.6958 12.7161 15.3846 11.7862 15.3846Z" fill="white"/>
<path d="M8.41874 12.3077C7.48883 12.3077 6.73499 11.6189 6.73499 10.7692V1.53846C6.73499 0.688793 7.48883 0 8.41874 0C9.34865 0 10.1025 0.688793 10.1025 1.53846V10.7692C10.1025 11.6189 9.34865 12.3077 8.41874 12.3077Z" fill="white"/>
<path d="M5.05124 13.8462C4.12133 13.8462 3.3675 13.1574 3.3675 12.3077V3.07692C3.3675 2.22725 4.12133 1.53846 5.05124 1.53846C5.98115 1.53846 6.73499 2.22725 6.73499 3.07692V12.3077C6.73499 13.1574 5.98115 13.8462 5.05124 13.8462Z" fill="white"/>
<path d="M1.68375 16.9231C0.75384 16.9231 0 16.2343 0 15.3846V6.15385C0 5.30418 0.75384 4.61538 1.68375 4.61538C2.61366 4.61538 3.3675 5.30418 3.3675 6.15385V15.3846C3.3675 16.2343 2.61366 16.9231 1.68375 16.9231Z" fill="white"/>
<path d="M6.97561 15.439L7.05376 15.2387C7.70297 13.575 9.22437 12.411 11 12.2195V12.2195" stroke="white" stroke-linecap="round"/>
</svg>
