<svg width="12" height="15" viewBox="0 0 12 15" fill="none" xmlns="http://www.w3.org/2000/svg">
<path d="M6.99999 1.5C6.99999 0.671573 6.32842 0 5.5 0C4.67157 0 4 0.671573 4 1.5V9.87868L2.56066 8.43934C1.97487 7.85356 1.02513 7.85356 0.43934 8.43934C-0.146447 9.02513 -0.146447 9.97488 0.43934 10.5607L4.43535 14.5567C4.55391 14.6762 4.68794 14.7718 4.83121 14.8431C4.86374 14.8593 4.89674 14.8743 4.93014 14.888C5.09856 14.9572 5.28236 14.9966 5.47498 14.9998C5.49223 15.0001 5.50948 15.0001 5.52672 14.9998C5.71807 14.9964 5.90068 14.9572 6.06813 14.8887C6.08807 14.8805 6.10787 14.8719 6.12751 14.8629C6.27285 14.796 6.40969 14.7046 6.53182 14.5887L10.7796 10.5926C11.3829 10.025 11.4119 9.07566 10.8443 8.47228C10.2766 7.8689 9.32731 7.83992 8.72393 8.40757L6.99999 10.0294V1.5Z" fill="white"/>
</svg>
