<svg width="25" height="20" viewBox="0 0 25 20" fill="none" xmlns="http://www.w3.org/2000/svg">
<path d="M4.14214 17.004C4.14214 18.1686 3.21489 19.1127 2.07107 19.1127C0.927248 19.1127 0 18.1686 0 17.004C0 15.8394 0.927248 12.4853 2.07107 12.4853C3.21489 12.4853 4.14214 15.8394 4.14214 17.004Z" fill="white"/>
<path d="M6.47747 13.2815C5.58286 13.7378 4.4601 13.5916 3.71161 12.8431C2.78156 11.9131 2.78156 10.4051 3.71161 9.47507L11.6806 1.50612C11.7229 1.46381 11.7664 1.42342 11.811 1.38497L11.9827 1.2132C13.6004 -0.404401 16.223 -0.404401 17.8406 1.2132L23.6985 7.07106C25.3161 8.68866 25.3161 11.3113 23.6985 12.9289L17.8406 18.7868C16.223 20.4044 13.6004 20.4044 11.9827 18.7868L6.47747 13.2815Z" fill="white"/>
<path d="M9.52044 12.5656C8.00217 10.8997 9.30747 8.23532 11.5543 8.41402L18.6303 8.9768C20.7622 9.14636 21.6986 11.7507 20.1627 13.2391L16.6776 16.6162C15.6705 17.5921 14.0559 17.542 13.1112 16.5055L9.52044 12.5656Z" fill="black"/>
</svg>
